<?xml version="1.0" encoding="UTF-8" standalone="no"?>
<!-- Created with Inkscape (http://www.inkscape.org/) -->

<svg
   xmlns:dc="http://purl.org/dc/elements/1.1/"
   xmlns:cc="http://creativecommons.org/ns#"
   xmlns:rdf="http://www.w3.org/1999/02/22-rdf-syntax-ns#"
   xmlns:svg="http://www.w3.org/2000/svg"
   xmlns="http://www.w3.org/2000/svg"
   xmlns:xlink="http://www.w3.org/1999/xlink"
   xmlns:sodipodi="http://sodipodi.sourceforge.net/DTD/sodipodi-0.dtd"
   xmlns:inkscape="http://www.inkscape.org/namespaces/inkscape"
   width="39.6875mm"
   height="39.6875mm"
   viewBox="0 0 39.6875 39.6875"
   version="1.1"
   id="svg8"
   sodipodi:docname="logo.svg"
   inkscape:version="0.92.1 r"
   inkscape:export-filename="./logo.png"
   inkscape:export-xdpi="96"
   inkscape:export-ydpi="96">
  <defs
     id="defs2">
    <linearGradient
       id="linearGradient4545"
       inkscape:collect="always">
      <stop
         id="stop4541"
         offset="0"
         style="stop-color:#ffffff;stop-opacity:1" />
      <stop
         id="stop4543"
         offset="1"
         style="stop-color:#ffffff;stop-opacity:0" />
    </linearGradient>
    <linearGradient
       inkscape:collect="always"
       id="linearGradient4861">
      <stop
         style="stop-color:#164a6d;stop-opacity:1;"
         offset="0"
         id="stop4857" />
      <stop
         style="stop-color:#164a6d;stop-opacity:0;"
         offset="1"
         id="stop4859" />
    </linearGradient>
    <radialGradient
       inkscape:collect="always"
       xlink:href="#linearGradient4861"
       id="radialGradient4863"
       cx="168.80731"
       cy="253.78471"
       fx="168.80731"
       fy="253.78471"
       r="27.16017"
       gradientUnits="userSpaceOnUse" />
    <radialGradient
       inkscape:collect="always"
       xlink:href="#linearGradient4545"
       id="radialGradient4539"
       cx="-2.6248901"
       cy="-355.57333"
       fx="-2.6248901"
       fy="-355.57333"
       r="284.74637"
       gradientTransform="translate(0,3.8710848e-5)"
       gradientUnits="userSpaceOnUse" />
    <radialGradient
       inkscape:collect="always"
       xlink:href="#linearGradient4545"
       id="radialGradient4547"
       gradientUnits="userSpaceOnUse"
       gradientTransform="translate(0,3.8710848e-5)"
       cx="-2.6248901"
       cy="-355.57333"
       fx="-2.6248901"
       fy="-355.57333"
       r="284.74637" />
  </defs>
  <sodipodi:namedview
     id="base"
     pagecolor="#ffffff"
     bordercolor="#666666"
     borderopacity="1.0"
     inkscape:pageopacity="0.0"
     inkscape:pageshadow="2"
     inkscape:zoom="1.979899"
     inkscape:cx="131.55703"
     inkscape:cy="22.582629"
     inkscape:document-units="mm"
     inkscape:current-layer="g5025"
     showgrid="false"
     fit-margin-top="0"
     fit-margin-left="0"
     fit-margin-right="0"
     fit-margin-bottom="0"
     inkscape:window-width="1698"
     inkscape:window-height="1015"
     inkscape:window-x="222"
     inkscape:window-y="27"
     inkscape:window-maximized="0" />
  <metadata
     id="metadata5">
    <rdf:RDF>
      <cc:Work
         rdf:about="">
        <dc:format>image/svg+xml</dc:format>
        <dc:type
           rdf:resource="http://purl.org/dc/dcmitype/StillImage" />
        <dc:title></dc:title>
      </cc:Work>
    </rdf:RDF>
  </metadata>
  <g
     inkscape:label="Layer 1"
     inkscape:groupmode="layer"
     id="layer1"
     transform="translate(-26.38902,-158.58064)">
    <g
       id="g5025"
       transform="matrix(0.8,0,0,0.8,5.9329636,51.560138)">
      <rect
         y="133.77563"
         x="25.57007"
         height="49.609375"
         width="49.609375"
         id="rect4510-1"
         style="fill:#164a6d;fill-opacity:1;stroke:none;stroke-width:0.20188752;stroke-miterlimit:4;stroke-dasharray:none;stroke-opacity:1" />
      <g
         id="g4876"
         transform="matrix(-0.10533723,0,0,-0.10533723,50.098259,121.12521)"
         style="fill:url(#radialGradient4539);fill-opacity:1">
        <path
           style="fill:url(#radialGradient4547);fill-opacity:1;stroke-width:0.44304365"
           d="m -287.37125,-640.31971 v 30.30294 c 2.01815,1.90979 8.20335,7.50593 15.15409,13.69115 15.55685,13.84342 41.16711,36.71344 89.03729,79.51094 2.20113,1.9678 8.89901,7.95078 14.88524,13.29312 5.98623,5.34235 23.82465,21.27569 39.64212,35.40879 15.81747,14.1331 29.787801,26.59416 31.043651,27.6907 1.25582,1.09653 7.72705,6.87764 14.38177,12.84765 12.58243,11.28783 25.55862,22.89267 54.46146,48.7019 17.69228,15.79858 22.2880998,20.00013 22.0629398,20.17823 -0.16774,0.13268 -15.5227298,-10.05929 -143.2351508,-95.07626 -104.97855,-69.88322 -130.77065,-87.03524 -137.43341,-91.2673 v 78.45393 c 2.6817,1.10646 11.90675,4.75835 23.61815,9.33655 13.13243,5.13368 25.57203,10.00321 27.64326,10.8206 2.07123,0.8174 6.55775,2.5843 9.96918,3.92493 3.41143,1.34065 11.88391,4.67007 18.82862,7.39912 6.94471,2.72907 17.90941,7.02566 24.36677,9.54743 6.45736,2.52177 17.1233,6.69487 23.70251,9.27593 6.57918,2.58105 17.24777,6.76077 23.70514,9.28647 6.45736,2.52569 14.53152,5.68844 17.94294,7.02746 3.41145,1.33901 18.763071,7.35466 34.114541,13.36956 15.35146,6.01488 31.59934,12.38587 36.1073,14.15771 4.50798,1.77183 14.75484,5.79217 22.77202,8.93325 8.01716,3.14112 14.16713,5.77145 13.66479,5.84656 -0.92886,0.13868 -8.42361,-1.16233 -114.413621,-19.85402 -126.96562,-22.39082 -156.78369,-27.62154 -162.0216,-28.4235 v 99.10136 c 2.63928,-0.37141 6.88551,-1.03503 11.80907,-1.86625 7.6873,-1.29781 22.74969,-3.83988 33.47136,-5.64886 10.72164,-1.80899 27.86842,-4.70772 38.10272,-6.43964 10.23433,-1.7319 25.68552,-4.34492 34.33596,-5.80701 8.65041,-1.4621 26.793,-4.53529 40.31692,-6.82976 35.577931,-6.03617 58.158261,-9.8429 89.493311,-15.09084 15.22962,-2.55063 28.18863,-4.7488 28.7978,-4.88442 2.6050998,-0.57989 -0.20101,0.80834 -7.08808,3.50582 -8.65534,3.39004 -13.16607,5.16734 -42.08829,16.58016 -12.06188,4.75964 -23.6267,9.29661 -25.69792,10.08252 -2.07123,0.78591 -7.55359,2.93663 -12.18339,4.77898 -7.747771,3.08314 -26.424821,10.43075 -65.790791,25.88508 -8.40677,3.30034 -19.57326,7.68972 -24.81225,9.75303 -5.23898,2.06333 -13.21356,5.19599 -17.72152,6.96157 -41.70987,16.33603 -72.35661,28.49192 -80.9449,32.08748 v 78.62263 c 11.06466,-7.16172 67.28518,-44.65327 220.505521,-147.02567 56.52936,-37.76945 58.9241398,-39.35667 58.9241398,-39.01213 0,0.23154 -14.0405498,12.84899 -51.8360498,46.57997 -94.720961,84.53463 -148.744251,132.76226 -155.286741,138.62486 -7.9239,7.1005 -14.47029,12.93966 -41.21315,36.77421 -21.17106,18.86867 -28.05911,25.05144 -31.09372,27.88313 v 30.492722 h 44.57136 c 3.33272,-4.15033 15.39906,-18.393065 58.33367,-68.990852 6.82338,-8.04119 19.06908,-22.49399 27.21096,-32.11911 8.14188,-9.6251 17.01744,-20.09195 19.72486,-23.25966 2.70742,-3.16781 7.6974,-9.0511 11.08682,-13.0717 3.38941,-4.02059 11.65703,-13.78775 18.37261,-21.70708 6.7156,-7.91944 27.246211,-32.14449 45.625741,-53.83148 44.18733,-52.13902 52.7968198,-62.24808 53.0143198,-62.24808 0.10025,0 -0.10559,0.55035 -0.45865,1.22045 -0.3530598,0.6701 -41.8901598,63.02264 -92.3032308,138.56161 l -90.39216,135.445902 h 79.11028 c 0.60284,-1.78533 1.68066,-4.70281 3.01289,-8.0871 2.05906,-5.230653 6.75172,-17.186433 10.43047,-26.567792 3.678771,-9.38147 9.436371,-24.03338 12.792291,-32.56195 5.96355,-15.15547 25.52819,-64.98075 38.53502,-98.13398 33.43495,-85.22285 44.1040298,-112.12935 44.2234198,-111.5167 0.13025,0.6684 -4.59054,27.60941 -36.6344998,208.98377 l -11.9936,67.883752 h 99.61275 c -0.5113,-2.53075 -7.72565,-44.978792 -20.60263,-121.269742 -2.05647,-12.18365 -6.63542,-39.19708 -10.17479,-60.03124 -16.36954019,-96.35781 -16.68131019,-98.29735 -15.30699019,-94.76257 0.22631,0.58205 4.74578999,12.02434 10.04299019,25.42641 5.2972,13.40208 12.77031,32.34134 16.60652,42.0883 3.83618,9.74697 16.09152,40.84857 27.23468,69.11474 11.14315,28.26625 22.4976,57.07477 25.234,64.01944 2.73641,6.94476 9.02825,22.89377 13.98104,35.44305 10.762459,27.268714 14.454989,36.685082 15.602289,39.971612 h 79.53461 c -1.53558,-2.185 -11.28259,-16.678198 -23.59696,-35.097742 -13.11402,-19.61581 -28.86072,-43.14117 -34.99239,-52.27888 -6.13168,-9.13784 -20.0888,-29.97179 -31.014559,-46.29792 -10.92589,-16.32623 -26.67593,-39.85152 -35.00027,-52.27889 -30.16172,-45.02833 -58.1189602,-86.85044 -58.4918302,-87.50052 -1.05133,-1.83294 2.07049,1.66079 13.2087602,14.78506 6.63052,7.81276 13.74976,16.21755 15.821,18.67838 2.07122,2.46084 16.51966,19.51327 32.10593,37.89449 29.89986,35.26154 55.120539,65.01564 62.316649,73.51678 8.41265,9.93867 23.14229,27.29715 26.12749,30.79059 1.66582,1.94941 7.57629,8.92816 13.13506,15.50733 5.55877,6.57926 15.77477,18.64185 22.70083,26.80501 34.16589,40.268513 44.0183,51.897962 46.82765,55.476312 h 44.31832 v -30.753692 c -1.58201,-1.4923 -4.26679,-3.93201 -6.77962,-6.13386 -2.90072,-2.54158 -7.26886,-6.42734 -9.70558,-8.63275 -2.43672,-2.20542 -11.90504,-10.67362 -21.04283,-18.82072 -37.01802,-33.00472 -45.68359,-40.74069 -51.61458,-46.07121 -3.41154,-3.06604 -10.7885,-9.66157 -16.39302,-14.65592 -5.60453,-4.99433 -18.66321,-16.64441 -29.0193,-25.89034 -10.35608,-9.24594 -33.68232,-30.06393 -51.836039,-46.26365 -18.15373,-16.1997 -36.6746,-32.75141 -41.15778,-36.78212 -4.48319,-4.03072 -9.19049,-8.22684 -10.45947,-9.32337 -5.75034,-4.96888 -42.7525502,-38.18605 -42.7525502,-38.3795 0,-0.11924 0.25159,-0.0711 0.55619,0.10807 0.90795,0.53418 59.2672202,39.45245 94.2564102,62.85699 42.422929,28.37682 97.545689,65.2358 147.534389,98.65324 18.14549,12.13025 33.19431,22.11961 38.41378,25.51078 v -78.46975 c -1.60711,-0.70247 -3.76419,-1.59479 -6.10752,-2.51734 -4.48893,-1.76734 -11.0514,-4.35206 -14.58468,-5.74373 -3.53328,-1.39168 -12.30708,-4.83826 -19.49551,-7.6601 -15.09011,-5.92368 -106.52908,-41.93075 -117.40544,-46.23202 -4.02076,-1.59001 -14.68658,-5.79249 -23.70251,-9.33654 -9.015789,-3.54406 -20.680339,-8.13651 -25.919329,-10.20641 -5.239,-2.06994 -11.21926,-4.40949 -13.29049,-5.19812 -7.53137,-2.86754 -54.7349302,-21.58466 -55.3814102,-21.96013 -0.37219,-0.21618 -0.43483,-0.39367 -0.14499,-0.40067 0.51645,-0.0134 32.5422702,5.60893 92.0765502,16.16104 17.300899,3.06648 39.929929,7.06428 50.286149,8.88581 34.29869,6.03272 36.5269,6.42728 39.87406,7.06435 1.82764,0.34783 18.57332,3.32783 37.21439,6.62152 18.64107,3.29369 39.45379,6.97047 46.25042,8.17146 4.24884,0.75075 7.94393,1.34185 10.33031,1.67384 v -99.04865 c -4.60999,0.6283 -17.26932,2.75218 -51.48542,8.5774 -15.07175,2.56593 -44.23694,7.52243 -157.722349,26.81029 -18.51924,3.14752 -41.44709,7.02881 -50.95038,8.62486 -9.50327,1.59603 -17.7766102,3.01671 -18.3857802,3.15523 -0.77392,0.17596 -0.96883,0.11066 -0.64845,-0.21615 0.35478,-0.36187 65.9495702,-26.4458 119.8278592,-47.65016 3.28954,-1.29465 9.26993,-3.65663 13.29055,-5.24818 4.02062,-1.59155 18.47331,-7.30233 32.11907,-12.69213 13.64576,-5.38978 33.08553,-13.07066 43.19801,-17.0678 10.11249,-3.99715 26.7587,-10.57566 36.99305,-14.619 10.23422,-4.04335 22.49623,-8.88957 27.2478,-10.76788 2.52214,-0.99699 4.82147,-1.94422 6.51604,-2.6755 v -78.79132 c -5.56781,3.51845 -22.16705,14.61264 -65.4401,43.68567 -9.13794,6.13923 -25.4373,17.08134 -36.22067,24.31406 -10.78351,7.2327 -27.93016,18.73384 -38.10284,25.55822 -10.1724,6.82435 -31.55237,21.16265 -47.512979,31.86341 -15.96066,10.70058 -32.60953,21.88042 -36.99567,24.84387 -12.82602,8.66584 -52.2172302,35.03619 -52.9431502,35.44306 -1.68768,0.94594 2.73204,-3.12013 25.4738602,-23.43891 13.40208,-11.97412 33.73813,-30.14633 45.19082,-40.38283 11.45275,-10.23651 25.621489,-22.89172 31.483779,-28.123 5.86244,-5.23129 19.91672,-17.79191 31.23346,-27.91213 22.12603,-19.78678 51.22913,-45.7819 68.40574,-61.10144 5.85879,-5.22552 13.34318,-11.91391 16.63285,-14.86151 3.28954,-2.94757 9.77036,-8.73872 14.40019,-12.86872 29.23199,-26.0765 41.64313,-37.18328 44.39471,-39.71858 v -31.46012 h -43.42204 c -1.22019,1.37818 -2.64591,3.0181 -4.1016,4.74999 -2.45116,2.91634 -10.03326,11.8839 -16.84892,19.92519 -10.71968,12.64704 -16.75364,19.77987 -30.54543,36.1073 -1.54382,1.82755 -4.22981,5.01681 -5.96784,7.08809 -1.73789,2.07118 -4.19904,4.96179 -5.46969,6.42382 -2.56871,2.95582 -12.26241,14.37703 -34.40707,40.53835 -13.34385,15.76421 -50.132159,59.20567 -87.044479,102.78643 -29.40861,34.72151 -47.4682102,55.99867 -48.6544702,57.32147 -1.085,1.20992 -1.17169,1.2433 -0.70116,0.27414 0.29577,-0.60918 42.0041102,-63.30529 92.6854702,-139.32604 47.157229,-70.73477 84.985009,-127.6675 90.307729,-135.88874 h -78.59623 c -1.43868,3.46573 -3.91764,9.6456 -6.68474,16.69878 -4.015229,10.23424 -8.436809,21.49781 -9.824209,25.03102 -1.38754,3.53333 -6.70603,17.0924 -11.81963,30.12896 -5.11358,13.03656 -10.86689,27.68847 -12.78438,32.56196 -1.91748,4.87348 -4.96964,12.64883 -6.78231,17.27868 -1.81266,4.62985 -4.43197,11.30979 -5.82019,14.84307 -3.87534,9.86336 -17.93804,45.73765 -23.27284,59.36697 -18.47447,47.19834 -32.01433019,81.36719 -32.39326019,81.7436 -0.29887,0.29687 -0.36603,0.0753 -0.20032,-0.6669 0.13601,-0.6092 1.35842999,-7.48571 2.71501999,-15.28326 1.3566,-7.79757 9.8406702,-55.94635 18.8549902,-106.99605 9.01432,-51.04972 16.87778,-95.6082 17.47374,-99.01965 0.59597,-3.41135 3.15806,-17.95189 5.69366,-32.31154 1.789,-10.13148 3.25571,-18.86287 3.94603,-23.37564 h -99.39131 c 0.38075,2.52172 0.96062,6.14949 1.76873,10.89704 1.20679,7.08984 6.10707,36.01688 10.88913,64.28303 4.78204,28.26617 10.66064,62.95803 13.06378,77.09113 4.15584,24.44074 6.874,40.50175 14.4345,85.28632 1.8305798,10.84352 4.0132798,23.69951 4.8527898,28.57113 0.83948,4.87161 1.51452,9.35813 1.49721,9.96917 -0.0482,1.71068 1.17422,4.72368 -23.0118798,-56.70729 -3.59764,-9.13778 -15.65665,-39.73881 -26.79711,-68.00501 -11.14045,-28.26618 -21.51031,-54.58509 -23.04352,-58.48392 -1.53321,-3.89873 -4.32204,-10.9745 -6.19976,-15.72611 -4.70564,-11.90768 -8.82901,-22.3704 -15.96862,-40.53835 -3.351551,-8.52857 -8.141361,-20.71726 -10.643981,-27.08443 -1.49878,-3.81326 -2.87032,-7.20767 -3.84586,-9.55271 h -78.99957 c 5.9386,9.27419 27.2975,41.32537 70.91246,106.41613 8.08221,12.0618 24.963591,37.28277 37.512271,56.04568 12.54867,18.7629 34.2843,51.25866 48.30123,72.21462 14.01694,20.95599 25.72253,38.60064 26.01424,39.20982 l 0.5298298,1.1071 -1.0201198,-1.16509 c -0.93888,-1.07166 -39.05733,-45.97216 -44.68207,-52.6321 -1.35248,-1.60141 -8.09812,-9.59008 -14.99067,-17.75316 -6.89256,-8.16307 -14.07472,-16.63819 -15.9607,-18.83126 -1.886,-2.19307 -13.38685,-15.74957 -25.558221,-30.12633 -12.17137,-14.37678 -27.19968,-32.12097 -33.39491,-39.43125 -6.19523,-7.31017 -13.95862,-16.47974 -17.25234,-20.37857 -13.75223,-16.27861 -40.6711,-48.02695 -42.63656,-50.2861 -1.16597,-1.34027 -6.163,-7.23886 -11.10528,-13.10861 -14.81081,-17.59037 -22.73512,-26.94204 -26.51243,-31.28088 z"
           id="path4890"
           inkscape:connector-curvature="0" />
      </g>
      <g
         id="g4583"
         transform="matrix(0.39687499,0,0,0.39687499,13.796846,81.070363)">
        <circle
           style="fill:#164a6d;fill-opacity:1;stroke:none;stroke-width:0.50626868;stroke-miterlimit:4;stroke-dasharray:none;stroke-opacity:1"
           id="path4520-7-6"
           cx="92.164825"
           cy="195.43433"
           r="27.16017" />
        <circle
           style="opacity:1;fill:#ffffff;fill-opacity:1;stroke:#164a6d;stroke-width:1;stroke-miterlimit:4;stroke-dasharray:none;stroke-opacity:1"
           id="path4520-7"
           cx="92.164825"
           cy="195.43433"
           r="27.16017" />
        <rect
           ry="1.2351314"
           rx="2"
           y="225.05482"
           x="70.783257"
           height="3.9613557"
           width="42.763123"
           id="rect4865"
           style="fill:#ffffff;fill-opacity:1;stroke:#164a6d;stroke-width:1;stroke-miterlimit:4;stroke-dasharray:none;stroke-opacity:1" />
        <rect
           ry="1.2351314"
           rx="2"
           y="221.07346"
           x="79.033318"
           height="3.9613557"
           width="26.263"
           id="rect4865-2"
           style="fill:#ffffff;fill-opacity:1;stroke:#164a6d;stroke-width:1;stroke-miterlimit:4;stroke-dasharray:none;stroke-opacity:1" />
        <text
           id="text4905"
           y="184.50562"
           x="77.095673"
           style="font-style:normal;font-weight:normal;font-size:2.11666656px;line-height:1.25;font-family:sans-serif;letter-spacing:0px;word-spacing:0px;fill:#164a6d;fill-opacity:1;stroke:none;stroke-width:0.26458332;stroke-miterlimit:4;stroke-dasharray:none"
           xml:space="preserve"><tspan
             style="font-size:2.11666656px;fill:#164a6d;fill-opacity:1;stroke-width:0.26458332"
             y="184.50562"
             x="77.095673"
             id="tspan4903"
             sodipodi:role="line"># Hi there</tspan><tspan
             id="tspan4907"
             style="font-size:2.11666656px;fill:#164a6d;fill-opacity:1;stroke-width:0.26458332"
             y="187.15144"
             x="77.095673"
             sodipodi:role="line" /><tspan
             style="font-size:2.11666656px;fill:#164a6d;fill-opacity:1;stroke-width:0.26458332"
             y="189.79729"
             x="77.095673"
             sodipodi:role="line"
             id="tspan4978">So you really wanted to read this</tspan><tspan
             style="font-size:2.11666656px;fill:#164a6d;fill-opacity:1;stroke-width:0.26458332"
             y="192.44312"
             x="77.095673"
             sodipodi:role="line"
             id="tspan5003">placeholder text?</tspan><tspan
             id="tspan4911"
             style="font-size:2.11666656px;fill:#164a6d;fill-opacity:1;stroke-width:0.26458332"
             y="195.08894"
             x="77.095673"
             sodipodi:role="line" /><tspan
             style="font-size:2.11666656px;fill:#164a6d;fill-opacity:1;stroke-width:0.26458332"
             y="197.73479"
             x="77.095673"
             sodipodi:role="line"
             id="tspan4989">You have now earned:</tspan><tspan
             style="font-size:2.11666656px;fill:#164a6d;fill-opacity:1;stroke-width:0.26458332"
             y="200.38062"
             x="77.095673"
             sodipodi:role="line"
             id="tspan4991" /><tspan
             id="tspan4913"
             style="font-size:2.11666656px;fill:#164a6d;fill-opacity:1;stroke-width:0.26458332"
             y="203.02644"
             x="77.095673"
             sodipodi:role="line">- Curious badge</tspan><tspan
             id="tspan4921"
             style="font-size:2.11666656px;fill:#164a6d;fill-opacity:1;stroke-width:0.26458332"
             y="205.67229"
             x="77.095673"
             sodipodi:role="line">- Explorer badge</tspan><tspan
             style="font-size:2.11666656px;fill:#164a6d;fill-opacity:1;stroke-width:0.26458332"
             y="208.31812"
             x="77.095673"
             sodipodi:role="line"
             id="tspan4993" /><tspan
             style="font-size:2.11666656px;fill:#164a6d;fill-opacity:1;stroke-width:0.26458332"
             y="210.96394"
             x="77.095673"
             sodipodi:role="line"
             id="tspan4997">**Level up!**</tspan></text>
        <path
           sodipodi:nodetypes="ccc"
           inkscape:connector-curvature="0"
           id="path4944"
           d="M 67.9584,201.73184 C 64.59486,185.23295 74.5503,173.55639 86.458604,170.95725 73.25892,178.40451 69.92503,191.56261 67.9584,201.73184 Z"
           style="fill:#164a6d;fill-opacity:1;stroke:none;stroke-width:0.26458332px;stroke-linecap:butt;stroke-linejoin:miter;stroke-miterlimit:4;stroke-dasharray:none;stroke-opacity:1" />
        <path
           sodipodi:nodetypes="ccc"
           inkscape:connector-curvature="0"
           id="path4944-0"
           d="m 117.10491,199.89206 c -1.96746,9.51324 -6.33971,13.62724 -12.73252,18.1114 6.30801,-6.32436 9.53431,-10.60261 12.73252,-18.1114 z"
           style="fill:#164a6d;fill-opacity:1;stroke:none;stroke-width:0.16059497px;stroke-linecap:butt;stroke-linejoin:miter;stroke-miterlimit:4;stroke-dasharray:none;stroke-opacity:1" />
      </g>
    </g>
  </g>
</svg>
